:SAMPLES-PER-SECOND 30
:FULLY-SPECIFIED
:DEGREES
381
root  99.2829 30.289 17.7123 14.9484 -41.3283 6.53131
RightUpLeg  -19.9615 -4.68968 5.66599
RightLeg  45.983 -3.71913 -3.41187
RightFoot  -30.6092 0.743274 3.09325
RightToes  -15.5154 -0.0578949 -0.139823
Spine  10.6904 -6.58339 -3.41057
Spine1  18.1274 -15.7655 -1.2394
HEad  15.3544 23.3954 5.40215
LeftShoulder1  0 -2.42657e-020 -4.95415e-022
LeftArm  -62.6157 -29.5728 -23.9599
LeftForeArm  36.2667 -20.2927 -3.72507
LeftHand  0.234511 -8.67906 -3.46234
RightShoulder  0 2.42657e-020 1.07489e-018
RightArm  -34.3109 5.29333 73.7194
RightForeArm  30.9187 35.0243 7.09681
RightHand  -1.6098 21.3048 -8.1757
LeftUpLeg  -57.2142 -0.221483 6.76905
LeftLeg  67.2162 -0.153866 -0.323073
LeftFoot  -8.33988 -0.0187661 -0.257404
LeftToes  -53.524 1.71452e-006 7.46813e-008
382
root  97.1565 30.6228 20.3303 14.0153 -43.7601 7.52991
RightUpLeg  -10.6519 -1.35726 3.65448
RightLeg  38.4904 -4.95326 -3.45375
RightFoot  -24.3062 0.54821 2.92289
RightToes  -26.1635 -0.118415 -0.224437
Spine  10.4611 -6.03622 -4.81203
Spine1  18.4438 -14.4022 -3.19135
HEad  16.2468 19.0322 9.2362
LeftShoulder1  0 -2.42657e-020 -4.95415e-022
LeftArm  -59.2714 -27.6274 -22.5932
LeftForeArm  35.2348 -24.9938 -4.70209
LeftHand  0.265818 -9.02701 -3.73923
RightShoulder  0 2.42657e-020 1.07489e-018
RightArm  -37.9197 2.59615 76.0344
RightForeArm  30.0724 33.9436 6.81371
RightHand  -1.48932 21.6624 -7.40488
LeftUpLeg  -60.2527 8.09423 0.877783
LeftLeg  73.781 -33.0028 -56.3996
LeftFoot  4.74705 0.412345 -9.92329
LeftToes  -110.656 1.71452e-006 7.46813e-008
383
root  95.03 30.7151 23.0868 13.5836 -46.7655 8.26214
RightUpLeg  -2.08398 4.00825 2.53519
RightLeg  31.4749 -7.96952 -4.1873
RightFoot  -16.3166 0.348667 2.80944
RightToes  -33.881 -0.171538 -0.278014
Spine  9.84375 -5.13979 -5.78342
Spine1  18.0288 -12.113 -4.96389
HEad  16.53 13.8223 12.6204
LeftShoulder1  0 -2.42657e-020 -4.95415e-022
LeftArm  -58.8826 -26.992 -24.0386
LeftForeArm  32.2819 -28.9944 -5.59788
LeftHand  0.260603 -8.95239 -3.70083
RightShoulder  0 2.42657e-020 1.07489e-018
RightArm  -40.2173 -0.354185 77.3429
RightForeArm  29.4455 32.1339 6.35539
RightHand  -1.42352 21.6476 -7.06752
LeftUpLeg  -58.8673 3.8424 7.46007
LeftLeg  36.9104 0.811737 0.526937
LeftFoot  -8.66783 -0.0128391 -0.169422
LeftToes  -14.6802 1.71452e-006 7.46813e-008
384
root  92.8872 30.3532 25.7247 15.4373 -49.1721 6.50253
RightUpLeg  3.44486 8.91473 4.2604
RightLeg  29.4945 -12.0491 -5.76856
RightFoot  -10.6589 0.206412 2.59013
RightToes  -27.2618 -0.125527 -0.232492
Spine  8.88902 -4.18755 -5.62258
Spine1  16.5249 -9.75392 -5.40646
HEad  16.3898 9.40331 15.1829
LeftShoulder1  0 -2.42657e-020 -4.95415e-022
LeftArm  -60.3621 -27.125 -27.7061
LeftForeArm  31.2222 -31.8398 -6.27844
LeftHand  0.322631 -8.8069 -4.56133
RightShoulder  0 2.42657e-020 1.07489e-018
RightArm  -41.954 -2.93662 77.5005
RightForeArm  31.5972 29.7076 5.76783
RightHand  -1.36126 22.2215 -6.55523
LeftUpLeg  -59.7153 6.70677 8.50272
LeftLeg  25.9501 -1.07976 -0.445255
LeftFoot  -5.69445 0.00399432 0.0803039
LeftToes  -30.8083 1.71452e-006 7.46813e-008
385
root  90.9448 29.5932 28.346 16.4437 -51.6991 6.0012
RightUpLeg  3.86479 9.21966 3.97773
RightLeg  36.249 -13.6271 -8.56584
RightFoot  -7.84882 0.126028 2.2147
RightToes  -10.5471 -0.0352569 -0.0968246
Spine  8.41059 -3.87471 -6.1211
Spine1  15.7898 -8.70309 -6.8855
HEad  15.9465 7.31312 17.8384
LeftShoulder1  0 -2.42657e-020 -4.95415e-022
LeftArm  -62.6617 -26.3008 -29.6119
LeftForeArm  34.3939 -33.6296 -6.72625
LeftHand  0.122927 -8.75358 -1.9775
RightShoulder  0 2.42657e-020 1.07489e-018
RightArm  -42.1288 -3.53324 78.3649
RightForeArm  34.8138 27.252 5.20116
RightHand  -1.35471 22.5445 -6.42091
LeftUpLeg  -62.2164 9.09777 6.89139
LeftLeg  28.4227 -3.09335 -1.42795
LeftFoot  -6.01319 0.0160317 0.305221
LeftToes  -34.6564 1.71452e-006 7.46813e-008
386
root  89.1973 28.5551 31.184 13.9542 -53.8139 8.92612
RightUpLeg  0.568671 5.59897 0.410731
RightLeg  48.7432 -9.81974 -9.73279
RightFoot  -5.95079 0.0507103 1.35331
RightToes  -15.2189 -0.0564401 -0.137314
Spine  8.92324 -4.58247 -7.54191
Spine1  17.0095 -10.0969 -8.81084
HEad  14.8859 6.58488 19.6922
LeftShoulder1  0 -2.42657e-020 -4.95415e-022
LeftArm  -69.6149 -26.4938 -31.1366
LeftForeArm  36.0429 -33.017 -6.56858
LeftHand  0.0500118 -9.44763 -0.975885
RightShoulder  0 2.42657e-020 1.07489e-018
RightArm  -40.7008 -2.11855 79.1821
RightForeArm  37.2379 25.6392 4.8423
RightHand  -1.3063 22.866 -6.08439
LeftUpLeg  -64.2897 6.88807 6.31405
LeftLeg  40.5312 -7.10087 -5.29833
LeftFoot  -1.76564 0.00250099 0.162294
LeftToes  -38.1704 1.71452e-006 7.46813e-008
387
root  87.4048 27.4007 33.9968 8.33432 -53.6265 13.0468
RightUpLeg  -2.99315 2.26286 -1.87916
RightLeg  63.3976 -4.21682 -7.28006
RightFoot  -9.98963 0.0808097 1.30224
RightToes  -18.4141 -0.0727954 -0.16395
Spine  11.3505 -6.07892 -9.38456
Spine1  22.0476 -13.5007 -9.99384
HEad  12.6619 5.24017 21.3743
LeftShoulder1  0 -2.42657e-020 -4.95415e-022
LeftArm  -76.0832 -29.6019 -31.1272
LeftForeArm  37.9669 -29.4696 -5.70357
LeftHand  -0.694786 -8.44714 9.02465
RightShoulder  0 2.42657e-020 1.07489e-018
RightArm  -38.9786 1.46238 80.4052
RightForeArm  37.8996 25.5232 4.81634
RightHand  -1.37243 22.8937 -6.40207
LeftUpLeg  -66.3038 1.46928 5.98386
LeftLeg  56.2063 -8.06193 -10.3755
LeftFoot  2.84158 0.0236069 -0.95178
LeftToes  -44.155 1.71452e-006 7.46813e-008
388
root  85.625 26.6732 36.5992 2.11177 -54.6245 18.2895
RightUpLeg  -9.74852 0.314877 -4.33751
RightLeg  78.2869 -2.53348 -9.42714
RightFoot  -13.5597 0.204273 2.09576
RightToes  -16.1771 -0.0611887 -0.145397
Spine  13.1878 -6.75727 -11.0685
Spine1  26.0421 -15.1455 -11.2718
HEad  12.0989 4.04088 20.4643
LeftShoulder1  0 -2.42657e-020 -4.95415e-022
LeftArm  -79.0875 -31.7784 -29.5447
LeftForeArm  41.2462 -21.8788 -4.04125
LeftHand  -0.458547 -8.67375 5.67541
RightShoulder  0 2.42657e-020 1.07489e-018
RightArm  -38.0878 4.80164 82.4328
RightForeArm  40.1898 25.1097 4.72411
RightHand  -1.54422 22.6913 -7.31705
LeftUpLeg  -64.6078 0.518593 1.80203
LeftLeg  66.6365 -5.11012 -9.91014
LeftFoot  -5.95623 0.0492464 0.946563
LeftToes  -45.5288 1.71452e-006 7.46813e-008
389
root  83.8607 26.4688 38.6909 0.192186 -56.5709 20.286
RightUpLeg  -20.5656 -1.94743 -3.82127
RightLeg  89.5456 -0.802636 -12.414
RightFoot  -18.155 0.546032 3.79429
RightToes  -5.64998 -0.0166704 -0.0526807
Spine  13.2908 -6.68938 -10.7978
Spine1  25.9309 -15.0636 -10.975
HEad  13.4087 4.90793 17.1467
LeftShoulder1  0 -2.42657e-020 -4.95415e-022
LeftArm  -67.5529 -31.3072 -27.3391
LeftForeArm  49.8196 -13.4925 -2.39697
LeftHand  0.176376 -11.3189 -2.15092
RightShoulder  0 2.42657e-020 1.07489e-018
RightArm  -35.4938 4.64227 83.8959
RightForeArm  39.0715 27.0192 5.14472
RightHand  -1.57202 23.0169 -7.34169
LeftUpLeg  -61.3712 1.64414 -0.431351
LeftLeg  71.4219 -3.90863 -9.47175
LeftFoot  -13.4184 0.271408 2.30687
LeftToes  -44.9789 1.71452e-006 7.46813e-008
390
root  81.957 26.8028 40.5869 -1.67553 -58.2385 21.6743
RightUpLeg  -30.7195 -4.87366 -2.27339
RightLeg  94.1622 0.234479 -13.3814
RightFoot  -20.561 0.774856 4.64781
RightToes  -8.85107 -0.0283936 -0.0817182
Spine  13.478 -6.74006 -9.57136
Spine1  25.7373 -15.2817 -9.68499
HEad  14.5689 7.73046 13.3211
LeftShoulder1  0 -2.42657e-020 -4.95415e-022
LeftArm  -49.2602 -31.1551 -29.855
LeftForeArm  72.6424 -9.6117 -1.63598
LeftHand  2.62413 -18.2511 -16.6057
RightShoulder  0 2.42657e-020 1.07489e-018
RightArm  -30.5932 4.8135 84.046
RightForeArm  33.936 29.5528 5.72972
RightHand  -1.11133 24.1255 -4.8282
LeftUpLeg  -55.1411 1.23527 -1.72536
LeftLeg  71.6576 -3.03068 -7.46339
LeftFoot  -18.7292 0.427651 2.59273
LeftToes  -44.3068 1.71452e-006 7.46813e-008
391
root  79.9468 27.5554 42.3456 -3.50267 -59.8997 22.7364
RightUpLeg  -39.9321 -7.28206 0.0580602
RightLeg  92.9676 -0.0349769 -12.047
RightFoot  -21.3891 0.741965 4.30499
RightToes  -10.1166 -0.0334728 -0.0930102
Spine  13.1878 -6.55323 -7.72294
Spine1  24.6002 -14.8203 -8.13559
HEad  16.9301 10.8216 8.68218
LeftShoulder1  0 -2.42657e-020 -4.95415e-022
LeftArm  -40.748 -32.7517 -37.388
LeftForeArm  108.977 0.221692 0.215107
LeftHand  0.742594 -17.7594 -5.12236
RightShoulder  0 2.42657e-020 1.07489e-018
RightArm  -26.9652 4.54006 84.1725
RightForeArm  34.1993 31.6792 6.2399
RightHand  -0.705798 24.85 -2.83339
LeftUpLeg  -46.6016 0.61021 -2.94805
LeftLeg  67.6732 -2.56821 -5.26133
LeftFoot  -22.3078 0.455683 2.31081
LeftToes  -41.977 1.71452e-006 7.46813e-008
392
root  77.6508 28.7129 44.0861 -6.09188 -62.8586 24.6226
RightUpLeg  -46.2561 -7.9878 2.4641
RightLeg  85.0636 -1.44314 -10.0765
RightFoot  -21.7663 0.64141 3.71284
RightToes  -10.3578 -0.034469 -0.0951494
Spine  12.7962 -5.91921 -6.22825
Spine1  23.4994 -13.3691 -7.37337
HEad  19.1813 14.8211 2.74786
LeftShoulder1  0 -2.42657e-020 -4.95415e-022
LeftArm  -32.0525 -22.6957 -44.1669
LeftForeArm  79.2455 -10.8225 -1.83666
LeftHand  0.956852 -15.6288 -7.33688
RightShoulder  0 2.42657e-020 1.07489e-018
RightArm  -22.8747 4.06124 84.9082
RightForeArm  34.4548 33.5149 6.70018
RightHand  -0.859831 24.7565 -3.54724
LeftUpLeg  -35.722 1.09835 -4.36891
LeftLeg  59.3502 -1.77009 -2.59987
LeftFoot  -22.9778 0.285832 1.40623
LeftToes  -40.3034 1.71452e-006 7.46813e-008
393
root  75.1577 30.0427 45.5944 -8.3425 -66.2465 26.4305
RightUpLeg  -49.253 -7.53258 5.64342
RightLeg  71.2807 -4.14299 -10.1142
RightFoot  -20.6754 0.625985 3.80842
RightToes  -12.9051 -0.045536 -0.117477
Spine  11.687 -4.94603 -4.84037
Spine1  21.3639 -11.047 -6.92209
HEad  21.8109 18.1392 -1.3873
LeftShoulder1  0 -2.42657e-020 -4.95415e-022
LeftArm  -37.9262 -15.3972 -51.5957
LeftForeArm  54.6267 -16.3267 -2.92221
LeftHand  0.880187 -13.7219 -7.67928
RightShoulder  0 2.42657e-020 1.07489e-018
RightArm  -19.7906 1.47009 85.9874
RightForeArm  32.7942 35.305 7.17047
RightHand  -1.03262 24.3941 -4.40573
LeftUpLeg  -25.414 1.66884 -5.11095
LeftLeg  50.1406 -0.799454 -0.848632
LeftFoot  -18.9198 0.0905192 0.543242
LeftToes  -39.7769 1.71452e-006 7.46813e-008
394
root  72.4431 31.3411 46.9819 -10.7962 -69.848 28.7065
RightUpLeg  -48.2405 -6.3944 8.78718
RightLeg  52.2705 -8.28079 -9.32017
RightFoot  -18.711 0.592923 3.97545
RightToes  -13.858 -0.0499297 -0.1257
Spine  10.4341 -3.77176 -3.47115
Spine1  19.2709 -8.57206 -5.4065
HEad  24.7267 19.2207 -4.25651
LeftShoulder1  0 -2.42657e-020 -4.95415e-022
LeftArm  -31.6546 -9.23962 -58.0913
LeftForeArm  53.1166 -21.5195 -3.94886
LeftHand  0.491682 -12.8575 -4.73408
RightShoulder  0 2.42657e-020 1.07489e-018
RightArm  -19.4578 -2.24826 86.3034
RightForeArm  30.3714 37.609 7.80837
RightHand  -1.0767 24.4154 -4.60486
LeftUpLeg  -16.6941 3.18264 -5.38773
LeftLeg  42.308 -1.25257 -1.00643
LeftFoot  -8.46408 0.0205085 0.277141
LeftToes  -49.648 1.71452e-006 7.46813e-008
